<svg width="23" height="19" viewBox="0 0 23 19" fill="currentColor" xmlns="http://www.w3.org/2000/svg">
<path fill-rule="evenodd" clip-rule="evenodd" d="M6.51808 0.910889C5.31507 0.910889 4.33984 1.88612 4.33984 3.08913V4.28857H3.08977C1.88676 4.28857 0.911535 5.2638 0.911535 6.46681V16.3202C0.911535 17.5232 1.88676 18.4985 3.08977 18.4985H16.4819C17.6849 18.4985 18.6602 17.5232 18.6602 16.3202V15.1208H19.9102C21.1132 15.1208 22.0885 14.1456 22.0885 12.9425V3.08912C22.0885 1.88612 21.1132 0.910889 19.9102 0.910889H6.51808ZM16.4819 15.1208H6.51808C5.31507 15.1208 4.33984 14.1456 4.33984 12.9425V6.46681H3.08977L3.08977 16.3202L16.4819 16.3202V15.1208ZM6.51808 12.9425V12.1528L12.9201 8.0788L14.189 9.89151C14.8678 10.8613 16.1968 11.1114 17.1817 10.4548L19.9102 8.63577V12.9425L6.51808 12.9425ZM6.51808 3.08913V9.57092L11.7506 6.24111C12.7341 5.61525 14.036 5.87465 14.7046 6.82967L15.9735 8.64238L19.9102 6.01786V3.08912L6.51808 3.08913ZM8.96846 6.95413C9.75021 6.95413 10.384 6.32039 10.384 5.53864C10.384 4.75689 9.75021 4.12315 8.96846 4.12315C8.18671 4.12315 7.55297 4.75689 7.55297 5.53864C7.55297 6.32039 8.18671 6.95413 8.96846 6.95413Z" fill="currentColor"/>
</svg>
