<svg width="33" height="21" viewBox="0 0 33 21" fill="none" xmlns="http://www.w3.org/2000/svg">
<path d="M13.0703 13.5158H9.08912C8.48761 13.5158 8 13.0282 8 12.4267V2.57325C8 1.97175 8.48761 1.48413 9.08912 1.48413H20.9812C21.5827 1.48413 22.0703 1.97646 22.0703 2.57796V2.57796" stroke="black" stroke-width="2.17824"/>
<path d="M9 4.48413H6.08912C5.48761 4.48413 5 4.97175 5 5.57325V15.4267C5 16.0282 5.48761 16.5158 6.08912 16.5158H14" stroke="black" stroke-width="2.17824"/>
<path d="M6 7.48413H3.08912C2.48761 7.48413 2 7.97175 2 8.57325V18.4267C2 19.0282 2.48762 19.5158 3.08912 19.5158H15" stroke="black" stroke-width="2.17824"/>
<path d="M8 11.0387L14.8725 6.6653C15.3775 6.34389 16.0473 6.49039 16.3721 6.99331L16.5 7.19136" stroke="black" stroke-width="2.17824"/>
<ellipse cx="11.5385" cy="5.02291" rx="1.41549" ry="1.41549" fill="black"/>
<path d="M31.138 8.81746C33.0547 6.9008 33.0547 3.81746 31.138 1.92163C29.2422 0.00496411 26.1589 0.00496411 24.2422 1.92163L21.4505 4.7133C19.5547 6.60913 19.5547 9.69246 21.4505 11.6091C21.888 12.0466 22.5964 12.0466 23.0339 11.6091C23.4922 11.1716 23.4922 10.4633 23.0339 10.0258C22.013 8.98413 22.013 7.3383 23.0339 6.29663L25.8464 3.50496C26.8672 2.48413 28.5339 2.48413 29.5547 3.50496C30.5755 4.5258 30.5755 6.19246 29.5547 7.2133L28.2214 8.56746C28.5547 9.4633 28.6797 10.4008 28.5964 11.3591L31.138 8.81746ZM25.7005 14.255C27.5964 12.3591 27.5964 9.2758 25.7005 7.35913C25.263 6.92163 24.5339 6.92163 24.0964 7.35913C23.6589 7.79663 23.6589 8.5258 24.0964 8.9633C25.138 9.98413 25.138 11.6508 24.0964 12.6716L21.3047 15.4633C20.2839 16.4841 18.6172 16.4841 17.5964 15.4633C16.5755 14.4425 16.5755 12.7758 17.5964 11.755L18.9297 10.4216C18.5964 9.5258 18.4714 8.56746 18.5547 7.60913L15.9922 10.1716C14.0964 12.0675 14.0964 15.1508 15.9922 17.0675C17.9089 18.9633 20.9922 18.9633 22.888 17.0675L25.7005 14.255Z" fill="black"/>
</svg>
