<svg width="15" height="15" viewBox="0 0 15 15" fill="none" xmlns="http://www.w3.org/2000/svg">
<path fill-rule="evenodd" clip-rule="evenodd" d="M13.3996 0.840023L13.3996 0.840185C13.7903 1.15608 14.1136 1.54716 14.3505 1.99026C14.5874 2.43337 14.7329 2.91949 14.7785 3.41985C14.8284 3.93582 14.7758 4.45657 14.6237 4.95213C14.4716 5.44769 14.223 5.90827 13.8921 6.30738L11.5662 9.09126C11.1171 9.62997 10.5277 10.0338 9.86312 10.258C9.67499 10.3217 9.48228 10.3709 9.28666 10.4053C8.66123 10.5131 8.01882 10.4634 7.41739 10.2608C6.81597 10.0582 6.27447 9.70893 5.84179 9.24466C5.66943 9.05885 5.57782 8.81226 5.58707 8.55899C5.59633 8.30573 5.70568 8.06647 5.89114 7.89374C6.0766 7.72101 6.32301 7.62892 6.57629 7.63766C6.82958 7.64641 7.06905 7.75529 7.24215 7.9404C7.54295 8.26344 7.94659 8.47202 8.38411 8.5305C8.82163 8.58899 9.26588 8.49374 9.64097 8.26105C9.80324 8.1608 9.9492 8.03627 10.0737 7.8918L10.0952 7.86804L12.4269 5.07637C12.7514 4.69394 12.916 4.2011 12.8863 3.70043C12.8566 3.19976 12.635 2.72982 12.2676 2.38839C12.0768 2.21925 11.854 2.09008 11.6124 2.00852C11.3708 1.92695 11.1153 1.89464 10.861 1.91349C10.6067 1.93235 10.3588 2.00198 10.1319 2.11829C9.90494 2.2346 9.70364 2.39521 9.53984 2.59065L8.41831 3.93309C8.25561 4.12782 8.02222 4.24994 7.76948 4.27259C7.51675 4.29524 7.26537 4.21656 7.07064 4.05387C6.87591 3.89117 6.75379 3.65778 6.73114 3.40505C6.70849 3.15231 6.78717 2.90093 6.94986 2.7062L8.07135 1.36392C8.71582 0.599099 9.63357 0.116285 10.6289 0.0184169C11.6243 -0.0794512 12.6185 0.21537 13.3996 0.840023ZM5.51264 12.377L6.51492 11.1773C6.67761 10.9826 6.911 10.8604 7.16374 10.8378C7.41647 10.8151 7.66786 10.8938 7.86258 11.0565C8.05731 11.2192 8.17943 11.4526 8.20208 11.7053C8.22473 11.9581 8.14605 12.2095 7.98336 12.4042L6.98441 13.5999C6.38972 14.3062 5.56532 14.7807 4.6558 14.94C4.53833 14.9607 4.41995 14.9758 4.30065 14.9854C3.80017 15.0296 3.29592 14.9728 2.81776 14.8186C2.3396 14.6643 1.89725 14.4157 1.51691 14.0874C0.763314 13.4298 0.296382 12.5039 0.21565 11.507C0.134918 10.5101 0.446772 9.52113 1.08473 8.75086L3.44999 5.91961C3.8028 5.49743 4.24265 5.15647 4.73946 4.92005C5.23627 4.68364 5.77829 4.55735 6.32842 4.54985C6.87856 4.54234 7.42383 4.65379 7.9269 4.87657C8.42997 5.09934 8.87897 5.42818 9.24316 5.84058C9.39398 6.01014 9.47862 6.22839 9.48157 6.4553C9.48452 6.68222 9.40558 6.90259 9.25922 7.07602L9.24777 7.08979C9.16057 7.19409 9.05188 7.27833 8.92913 7.33677C8.80638 7.3952 8.67246 7.42645 8.53653 7.42838C8.39896 7.43024 8.26261 7.40238 8.1368 7.34669C8.01099 7.29101 7.89869 7.20881 7.80757 7.10572C7.74395 7.03399 7.67506 6.96712 7.60147 6.90567C7.29419 6.64835 6.91343 6.49475 6.51361 6.46682C6.1138 6.43889 5.71538 6.53805 5.37531 6.75014C5.21302 6.85033 5.06706 6.97481 4.9425 7.11924L4.92505 7.13874L2.55317 9.97775C2.38995 10.1737 2.26767 10.4003 2.19354 10.6443C2.11942 10.8882 2.09496 11.1446 2.12161 11.3982C2.14826 11.6518 2.22548 11.8975 2.34871 12.1207C2.47193 12.3439 2.63866 12.5402 2.83904 12.6979C3.24033 12.9988 3.7422 13.1333 4.2402 13.0736C4.73819 13.0138 5.19396 12.7643 5.51264 12.377Z" fill="black"/>
</svg>
